# xmcd
#
# Track frame offsets:
#	150
#	27426
#	59671
#	97466
#	134899
#	151070
#	189014
#	214889
#	246509
#	274742
#
# Disc length: 4034 seconds
#
# Revision: 1
# Processed by: cddbd v1.5.2PL0 Copyright (c) Steve Scherf et al.
# Submitted via: audiograbber 1.83.01
#
DISCID=9d0fc00a
DTITLE=Grateful Dead - 89-05-06 Frost Amphitheatre, Palo Alto CA
DYEAR=1900
DGENRE=
TTITLE0=Jack Straw
TTITLE1=Peggy-O
TTITLE2=Walkin' Blues
TTITLE3=They Love Each Other
TTITLE4=The Race Is On
TTITLE5=West LA Fadeaway
TTITLE6=Just A Little Light
TTITLE7=Queen Jane Approximately
TTITLE8=China Cat Sunflower
TTITLE9=I Know You Rider
EXTD=
EXTT0=
EXTT1=
EXTT2=
EXTT3=
EXTT4=
EXTT5=
EXTT6=
EXTT7=
EXTT8=
EXTT9=
PLAYORDER=
